<?xml version="1.0" standalone="no"?>
<!DOCTYPE svg PUBLIC "-//W3C//DTD SVG 20010904//EN"
 "http://www.w3.org/TR/2001/REC-SVG-20010904/DTD/svg10.dtd">
<svg version="1.0" xmlns="http://www.w3.org/2000/svg"
 width="400.000000pt" height="400.000000pt" viewBox="0 0 400.000000 400.000000"
 preserveAspectRatio="xMidYMid meet">
<metadata>
Created by potrace 1.14, written by Peter Selinger 2001-2017
</metadata>
<g transform="translate(0.000000,400.000000) scale(0.100000,-0.100000)"
fill="#000000" stroke="none">
<path d="M2724 2948 c21 -32 28 -36 19 -11 -4 10 -2 14 5 9 6 -3 13 -2 16 3 4
5 -2 8 -11 6 -10 -1 -24 3 -32 9 -9 7 -8 1 3 -16z"/>
<path d="M2534 2951 c-3 -3 -10 -7 -15 -7 -5 -1 -13 -2 -19 -3 -5 0 -10 -6
-10 -12 0 -8 5 -8 15 1 12 10 15 10 15 -1 1 -9 4 -8 11 4 6 9 14 15 19 12 5
-3 11 -2 14 3 6 10 -21 12 -30 3z"/>
<path d="M2769 2933 c-12 -16 -12 -17 2 -6 9 7 20 9 24 5 5 -4 5 -1 1 6 -9 16
-11 15 -27 -5z"/>
<path d="M1580 2930 c-8 -5 -10 -10 -5 -10 6 0 17 5 25 10 8 5 11 10 5 10 -5
0 -17 -5 -25 -10z"/>
<path d="M2780 2910 c0 -6 -4 -8 -10 -5 -6 4 -7 -1 -3 -11 4 -11 8 -13 11 -6
2 7 8 10 13 6 5 -3 9 -1 9 5 0 5 -4 13 -10 16 -5 3 -10 1 -10 -5z"/>
<path d="M1462 2871 c2 -8 -6 -16 -17 -19 -11 -4 -341 -8 -733 -9 l-712 -3 0
-1420 0 -1420 2000 0 2000 0 0 1420 0 1420 -560 0 -560 0 -1 23 c0 21 -1 21
-9 2 -5 -11 -9 -14 -9 -7 -1 7 -6 10 -11 7 -8 -5 -7 -11 1 -21 8 -10 7 -17 -5
-29 -15 -15 -16 -15 -14 2 0 10 0 29 -1 43 -1 19 -4 22 -10 11 -5 -8 -6 -21
-3 -30 5 -14 4 -14 -13 -1 -19 15 -19 14 -2 -12 9 -15 17 -34 17 -43 0 -9 3
-14 8 -11 16 10 2 -301 -20 -434 -6 -36 -35 -126 -65 -200 -45 -110 -64 -144
-102 -185 -61 -63 -81 -94 -81 -121 0 -12 -27 -54 -60 -93 -33 -40 -66 -86
-74 -104 -8 -19 -73 -87 -160 -166 -81 -73 -197 -189 -257 -257 -140 -156
-207 -217 -288 -257 -54 -26 -76 -31 -137 -32 -103 0 -111 9 -96 112 7 43 12
93 12 111 0 18 13 68 30 110 18 47 39 139 55 238 24 142 26 170 16 232 -6 39
-11 95 -11 124 1 57 -66 495 -83 541 -5 15 -38 50 -73 78 -52 41 -64 57 -69
87 -3 20 -10 52 -14 70 -10 36 3 71 46 130 13 18 25 41 26 51 1 11 7 17 14 14
7 -3 13 0 13 7 0 6 4 9 9 6 5 -3 14 0 20 8 9 10 7 16 -4 26 -13 11 -16 11 -13
1z m-68 -89 c3 -5 -1 -9 -9 -9 -8 0 -12 4 -9 9 3 4 7 8 9 8 2 0 6 -4 9 -8z"/>
<path d="M1983 2865 c-3 -9 -3 -18 -1 -21 3 -3 8 4 11 16 6 23 -1 27 -10 5z"/>
<path d="M2404 2860 l5 -25 -164 3 c-96 2 -165 7 -165 12 0 6 -9 10 -20 10
-11 0 -20 -4 -20 -9 0 -11 -49 -21 -67 -14 -7 3 -13 11 -13 19 0 8 -4 14 -10
14 -13 0 -13 -17 0 -25 6 -4 8 -16 4 -27 -5 -17 -3 -19 15 -13 13 4 21 2 21
-5 0 -6 -5 -8 -10 -5 -16 10 -21 -17 -11 -65 52 -250 52 -252 41 -326 -6 -39
-24 -118 -40 -174 -32 -111 -77 -440 -66 -483 9 -37 33 -41 90 -13 81 41 142
98 154 148 8 31 30 63 76 113 42 45 67 81 71 102 3 18 24 54 47 80 87 101 119
223 118 453 -1 152 0 158 18 203 15 35 15 50 2 42 -5 -3 -10 -14 -10 -23 0 -9
-10 -28 -21 -42 l-20 -25 16 39 c19 49 19 55 -1 30 -15 -19 -15 -18 -11 4 3
12 1 22 -4 22 -5 0 -9 -6 -9 -12 0 -9 -4 -8 -11 2 -8 12 -9 10 -5 -10z"/>
<path d="M2786 2872 c-3 -5 1 -9 9 -9 8 0 15 4 15 9 0 4 -4 8 -9 8 -6 0 -12
-4 -15 -8z"/>
</g>
</svg>
