<?xml version="1.0" standalone="no"?>
<!DOCTYPE svg PUBLIC "-//W3C//DTD SVG 20010904//EN"
 "http://www.w3.org/TR/2001/REC-SVG-20010904/DTD/svg10.dtd">
<svg version="1.0" xmlns="http://www.w3.org/2000/svg"
 width="400.000000pt" height="400.000000pt" viewBox="0 0 400.000000 400.000000"
 preserveAspectRatio="xMidYMid meet">
<metadata>
Created by potrace 1.14, written by Peter Selinger 2001-2017
</metadata>
<g transform="translate(0.000000,400.000000) scale(0.100000,-0.100000)"
fill="#000000" stroke="none">
<path d="M0 1520 l0 -1520 2000 0 2000 0 0 1520 0 1520 -580 0 c-325 0 -580
-4 -580 -9 0 -11 -62 -24 -69 -14 -8 11 -42 13 -35 2 7 -12 -3 -11 -29 3 -12
6 -51 12 -87 13 -36 0 -57 -1 -47 -3 9 -2 17 -8 17 -13 0 -11 -23 -12 -34 -2
-9 9 -85 10 -79 1 2 -5 -7 -8 -21 -8 -18 0 -24 4 -20 15 5 13 -26 15 -249 15
-235 0 -256 -1 -260 -17 -4 -17 -5 -17 -6 0 -1 17 -31 25 -31 8 0 -5 -30 -12
-67 -16 -36 -4 -61 -10 -55 -14 7 -4 -4 -7 -22 -7 -34 0 -41 15 -8 17 9 0 34
6 56 12 37 11 34 12 -45 12 -46 0 -88 -4 -92 -10 -6 -6 -10 -6 -14 3 -6 14
-80 17 -85 2 -1 -5 -29 -12 -60 -15 -48 -5 -58 -3 -58 10 0 13 -81 15 -720 15
l-720 0 0 -1520z m2662 1493 c-13 -3 -19 -9 -16 -15 4 -7 2 -8 -4 -4 -21 13
-13 26 16 25 23 -2 24 -2 4 -6z m-827 -13 c3 -6 -4 -10 -17 -10 -18 0 -20 2
-8 10 19 12 18 12 25 0z m765 -10 c0 -5 -5 -10 -11 -10 -5 0 -7 5 -4 10 3 6 8
10 11 10 2 0 4 -4 4 -10z m105 -1 c11 -17 -1 -21 -15 -4 -8 9 -8 15 -2 15 6 0
14 -5 17 -11z m-868 -25 c18 -3 30 -11 27 -16 -4 -6 3 -8 17 -4 13 3 19 3 12
0 -8 -4 -3 -18 17 -46 17 -23 30 -47 30 -55 0 -8 5 -11 12 -7 6 4 8 3 5 -3 -6
-9 12 -113 43 -252 19 -85 7 -227 -29 -346 -33 -109 -79 -441 -68 -487 10 -38
34 -42 92 -13 81 39 141 97 153 147 8 31 30 62 76 111 42 44 66 79 70 100 3
18 24 55 47 82 91 110 109 176 118 430 5 155 11 209 24 239 9 21 14 43 10 50
-3 6 -3 8 2 4 4 -4 14 0 21 10 21 27 16 37 -8 16 l-23 -19 18 22 c11 12 24 20
31 17 7 -3 30 3 52 13 50 22 73 24 99 8 11 -7 28 -11 38 -10 9 2 15 0 12 -5
-3 -4 3 -18 13 -31 10 -13 22 -32 25 -42 4 -11 12 -15 19 -11 7 5 9 2 5 -8 -3
-9 1 -24 8 -35 27 -39 38 -137 26 -231 -6 -49 -11 -115 -11 -148 -1 -70 -19
-159 -48 -229 -11 -27 -34 -86 -52 -130 -22 -57 -45 -94 -79 -130 -61 -63 -81
-94 -81 -122 0 -12 -24 -49 -56 -85 -31 -35 -64 -81 -74 -103 -12 -28 -63 -82
-167 -177 -82 -75 -181 -171 -218 -214 -136 -155 -246 -257 -318 -293 -58 -29
-78 -34 -141 -35 -97 -1 -111 10 -101 79 3 27 10 84 15 126 4 41 19 102 33
135 14 33 36 129 52 222 24 146 26 171 16 244 -6 45 -11 104 -11 132 0 66 -68
491 -85 532 -8 17 -39 51 -71 75 -64 49 -73 69 -76 164 -2 47 3 69 20 96 26
43 120 137 159 158 15 9 31 20 34 24 3 5 12 9 20 11 26 4 94 28 103 36 5 5 14
6 21 4 7 -3 16 -1 19 4 6 10 37 9 103 -4z m656 -19 c-3 -9 -8 -14 -10 -11 -3
3 -2 9 2 15 9 16 15 13 8 -4z m281 -15 c-6 -6 -10 -3 -10 10 0 13 4 16 10 10
7 -7 7 -13 0 -20z"/>
</g>
</svg>
